<svg width="200" height="200" viewBox="0 0 200 200" xmlns="http://www.w3.org/2000/svg" role="img" aria-label="Files icon">
  <rect width="200" height="200" rx="22" fill="transparent"/>
  <!-- Shadow -->
  <ellipse cx="100" cy="176" rx="70" ry="10" fill="black" opacity="0.08"/>
  <!-- Orange file bottom -->
  <g transform="rotate(-12 40 140)">
    <rect x="12" y="98" width="110" height="70" rx="4" fill="#F59E0B" stroke="#0a0a0a" stroke-width="3"/>
    <rect x="18" y="102" width="12" height="56" rx="1.5" fill="white" stroke="#0a0a0a" stroke-width="1.2"/>
    <rect x="32" y="105" width="72" height="7" rx="2" fill="white"/>
    <circle cx="82" cy="150" r="10" fill="none" stroke="#92400e" stroke-width="2.2"/>
  </g>
  <!-- Blue file middle -->
  <g transform="rotate(-8 60 120)">
    <rect x="22" y="78" width="110" height="70" rx="4" fill="#60A5FA" stroke="#0a0a0a" stroke-width="3"/>
    <rect x="28" y="82" width="12" height="56" rx="1.5" fill="white" stroke="#0a0a0a" stroke-width="1.2"/>
    <rect x="42" y="85" width="72" height="7" rx="2" fill="white"/>
    <circle cx="88" cy="130" r="9" fill="none" stroke="#1e3a8a" stroke-width="2.2"/>
  </g>
  <!-- Red file top left -->
  <g transform="rotate(-6 70 90)">
    <rect x="32" y="58" width="110" height="62" rx="4" fill="#EF4444" stroke="#0a0a0a" stroke-width="3"/>
    <rect x="88" y="62" width="34" height="14" rx="1.5" fill="white" stroke="#0a0a0a" stroke-width="1.2"/>
    <circle cx="92" cy="112" r="9" fill="none" stroke="#7f1d1d" stroke-width="2.2"/>
    <rect x="42" y="88" width="52" height="4" rx="1" fill="white" opacity="0.92"/>
  </g>
  <!-- Light blue standing -->
  <g transform="rotate(14 140 110)">
    <rect x="108" y="52" width="52" height="110" rx="4" fill="#7DD3FC" stroke="#0a0a0a" stroke-width="3"/>
    <rect x="112" y="70" width="18" height="6" rx="1" fill="white" stroke="#0a0a0a" stroke-width="1"/>
    <rect x="112" y="84" width="36" height="54" rx="1.5" fill="white" stroke="#0a0a0a" stroke-width="1.2"/>
    <rect x="116" y="90" width="28" height="2.5" rx="1" fill="#0a0a0a" opacity="0.85"/>
    <rect x="116" y="96" width="28" height="2.5" rx="1" fill="#0a0a0a" opacity="0.85"/>
    <rect x="116" y="102" width="20" height="2.5" rx="1" fill="#0a0a0a" opacity="0.85"/>
    <circle cx="132" cy="148" r="8" fill="#E0F2FE" stroke="#0a0a0a" stroke-width="2"/>
    <circle cx="132" cy="148" r="5" fill="#0c4a6e"/>
  </g>
  <!-- Green standing front -->
  <g transform="rotate(12 150 120)">
    <rect x="118" y="62" width="52" height="112" rx="4" fill="#4ADE80" stroke="#0a0a0a" stroke-width="3"/>
    <rect x="122" y="78" width="18" height="6" rx="1" fill="white" stroke="#0a0a0a" stroke-width="1"/>
    <rect x="122" y="92" width="36" height="54" rx="1.5" fill="white" stroke="#0a0a0a" stroke-width="1.2"/>
    <rect x="126" y="98" width="28" height="2.5" rx="1" fill="#0a0a0a" opacity="0.85"/>
    <rect x="126" y="104" width="28" height="2.5" rx="1" fill="#0a0a0a" opacity="0.85"/>
    <rect x="126" y="110" width="18" height="2.5" rx="1" fill="#0a0a0a" opacity="0.85"/>
    <circle cx="142" cy="150" r="8" fill="#DCFCE7" stroke="#0a0a0a" stroke-width="2"/>
    <circle cx="142" cy="150" r="5" fill="#14532d"/>
  </g>
</svg>
